# xmcd CD database file
#
# Track frame offsets:
#	150
#	13536
#	27736
#	41859
#	63147
#	80279
#	94032
#	110034
#	123312
#	133369
#	148643
#	161912
#	173782
#
# Disc length: 2564 seconds
#
# Revision: 0
# Processed by: cddbd v1.5.2PL0 Copyright (c) Steve Scherf et al.
# Submitted via: CDex 1.51
#
DISCID=b70a020d
DTITLE=David Serby - Honkytonk and Vine
DYEAR=2009
DGENRE=Country
TTITLE0=Get It In Gear
TTITLE1=If You're Serious
TTITLE2=Chasin' You
TTITLE3=Tumble Down
TTITLE4=Honky Tonk Affair
TTITLE5=For Cryin' Out Loud
TTITLE6=I Only Smoke When I'm Drinkin'
TTITLE7=Don't Even Try
TTITLE8=Country Club Couples
TTITLE9=Permanent Position
TTITLE10=The Grass Is Always Bluer
TTITLE11=The Heartache's On The Other Sleeve
TTITLE12=Go On And Cry
EXTD=YEAR: 2009
EXTT0=
EXTT1=
EXTT2=
EXTT3=
EXTT4=
EXTT5=
EXTT6=
EXTT7=
EXTT8=
EXTT9=
EXTT10=
EXTT11=
EXTT12=
PLAYORDER=
